<svg xmlns="http://www.w3.org/2000/svg" viewBox="0 15.399999618530273 149.89999389648438 50" data-asc="1.058" width="149.89999389648438" height="50"><defs/><g fill="#000000"><g transform="translate(0, 0)"><path d="M21.30 51.95L17.65 41.15L7.75 41.15L3.90 51.95L7.65 51.95L7.65 52.90L0 52.90L0 51.95L2.35 51.95L15.10 17.60L19.20 17.60L31.80 51.95L34.10 51.95L34.10 52.90L17.75 52.90L17.75 51.95L21.30 51.95M12.90 26.95L8.20 40.05L17.25 40.05L12.90 26.95ZM43.55 42.55Q43.55 47.80 44.10 49.53Q44.65 51.25 46.13 51.25Q47.60 51.25 48.68 49.95Q49.75 48.65 49.75 46.10L49.75 35.20Q49.75 33.05 48.90 31.55Q48.05 30.05 46.40 30.05Q44.75 30.05 44.15 32.25Q43.55 34.45 43.55 39.95L43.55 42.55M50.40 52.90L49.85 49.40Q48.15 53.40 42.95 53.40Q38.65 53.40 36.28 50.30Q33.90 47.20 33.90 41.05Q33.90 28.60 43.80 28.60Q48.20 28.60 49.60 31.05L49.60 16.30L46.55 16.30L46.55 15.40L59.05 15.40L59.05 52.00L61.50 52.00L61.50 52.90L50.40 52.90ZM70.15 25.65Q70.15 25.65 68.83 25.65Q67.50 25.65 66.38 24.30Q65.25 22.95 65.25 20.95Q65.25 18.95 66.48 17.65Q67.70 16.35 70.20 16.35Q72.70 16.35 74.00 17.53Q75.30 18.70 75.30 20.88Q75.30 23.05 74.05 24.35Q72.80 25.65 70.15 25.65M62.60 29.10L74.85 29.10L74.85 52.00L77.65 52.00L77.65 52.90L62.80 52.90L62.80 52.00L65.55 52.00L65.55 30.00L62.60 30.00L62.60 29.10ZM81.15 45.75L81.15 30.00L78.40 30.00L78.40 29.10L81.15 29.10L81.15 22.65L90.45 20.35L90.45 29.10L96.95 29.10L96.95 30.00L90.45 30.00L90.45 46.85Q90.45 49.20 90.93 50.30Q91.40 51.40 92.90 51.40Q94.40 51.40 95.53 49.90Q96.65 48.40 97 45.80L97.85 45.90Q97.45 49.35 95.65 51.38Q93.85 53.40 89.70 53.40Q85.55 53.40 83.35 51.75Q81.15 50.10 81.15 45.75ZM97.60 30.00L97.60 29.10L112.10 29.10L112.10 30.00L109.40 30.00L114.85 46.60L120.65 30.00L117.30 30.00L117.30 29.10L124.35 29.10L124.35 30.00L121.85 30.00L112.50 56.95Q110.85 61.65 108.80 63.53Q106.75 65.40 103.80 65.40Q100.85 65.40 99.15 64.05Q97.45 62.70 97.45 60.60Q97.45 58.50 98.55 57.40Q99.65 56.30 101.45 56.30Q105.60 56.30 105.60 59.75Q105.60 60.50 105.30 61.55L103.55 61.55Q103.15 62.70 103.45 63.45Q103.75 64.20 104.80 64.20Q106.85 64.20 108.45 62.18Q110.05 60.15 111.50 56.00L112.60 52.90L108.20 52.90L99.65 30.00L97.60 30.00ZM134.95 41.15L136.40 41.15L136.40 37.30Q136.40 32.55 135.88 30.93Q135.35 29.30 133.85 29.30Q132.95 29.30 132.23 29.78Q131.50 30.25 131.50 31.08Q131.50 31.90 131.80 32.75L133.05 32.75Q133.45 33.80 133.45 35.28Q133.45 36.75 132.20 37.83Q130.95 38.90 129.05 38.90Q124.75 38.90 124.75 34.75Q124.75 28.60 135.20 28.60Q141.15 28.60 143.43 30.63Q145.70 32.65 145.70 38.05L145.70 48.20Q145.70 50.80 147.15 50.80Q148.85 50.80 149.15 45.65L149.90 45.70Q149.70 50.10 148.25 51.75Q146.80 53.40 143.50 53.40Q137.50 53.40 136.60 49.70Q135.95 51.60 134.65 52.50Q133.35 53.40 130.85 53.40Q123.45 53.40 123.45 47.35Q123.45 43.80 126.28 42.48Q129.10 41.15 134.95 41.15M132.95 47.30Q132.95 49.90 133.23 50.65Q133.50 51.40 134.28 51.40Q135.05 51.40 135.73 50.13Q136.40 48.85 136.40 46.60L136.40 41.95L136.05 41.95Q132.95 41.95 132.95 46.50L132.95 47.30Z"/></g></g></svg>