<svg xmlns="http://www.w3.org/2000/svg" viewBox="0 17.350000381469727 140.39999389648438 47.45000457763672" data-asc="1.058" width="140.39999389648438" height="47.45000457763672"><defs/><g fill="#000000"><g transform="translate(0, 0)"><path d="M17.45 52.40Q19.90 52.40 20.57 51.50Q21.25 50.60 21.25 48.45L21.25 38.75L18.05 38.75L18.05 37.65L32.45 37.65L32.45 38.75L30.50 38.75L30.50 52.85L29.75 52.85Q28.85 51.60 27.20 51.60Q26.50 51.60 23.03 52.50Q19.55 53.40 17.10 53.40Q8.95 53.40 4.47 49.00Q0 44.60 0 35.78Q0 26.95 4.68 22.15Q9.35 17.35 17.25 17.35Q20.30 17.35 23.38 18.13Q26.45 18.90 26.95 18.90Q27.45 18.90 27.70 18.68Q27.95 18.45 28.25 17.90L28.80 17.90L29.20 28.75L28.30 28.75Q25.85 23.90 23.38 21.13Q20.90 18.35 17.85 18.35Q10.20 18.35 10.20 33.30L10.20 37.25Q10.20 44.75 12.07 48.58Q13.95 52.40 17.45 52.40ZM63.35 52.90L51.95 52.90L51.40 49.25Q50.60 51.25 49.03 52.33Q47.45 53.40 44.35 53.40Q36.60 53.40 36.60 45.05L36.60 30.00L33.80 30.00L33.80 29.10L45.90 29.10L45.90 46.25Q45.90 49.25 46.33 50.20Q46.75 51.15 48.03 51.15Q49.30 51.15 50.30 49.60Q51.30 48.05 51.30 45.30L51.30 30.00L49 30.00L49 29.10L60.60 29.10L60.60 52.00L63.35 52.00L63.35 52.90ZM82.60 39.45Q82.60 34.30 82.10 32.53Q81.60 30.75 80.15 30.75Q78.70 30.75 77.55 32.63Q76.40 34.50 76.40 37.65L76.40 46.80Q76.40 48.95 77.25 50.45Q78.10 51.95 79.75 51.95Q81.40 51.95 82 49.75Q82.60 47.55 82.60 42.05L82.60 39.45M76.30 29.10L76.30 33.05Q78.25 28.60 83.20 28.60Q87.50 28.60 89.88 31.70Q92.25 34.80 92.25 41.10Q92.25 47.40 89.68 50.40Q87.10 53.40 81.95 53.40Q79.55 53.40 78.35 52.80Q77.15 52.20 76.40 50.95L76.40 63.90L82.85 63.90L82.85 64.80L64.35 64.80L64.35 63.90L67.10 63.90L67.10 30.00L64.45 30.00L64.45 29.10L76.30 29.10ZM96.25 45.75L96.25 30.00L93.50 30.00L93.50 29.10L96.25 29.10L96.25 22.65L105.55 20.35L105.55 29.10L112.05 29.10L112.05 30.00L105.55 30.00L105.55 46.85Q105.55 49.20 106.03 50.30Q106.50 51.40 108 51.40Q109.50 51.40 110.63 49.90Q111.75 48.40 112.10 45.80L112.95 45.90Q112.55 49.35 110.75 51.38Q108.95 53.40 104.80 53.40Q100.65 53.40 98.45 51.75Q96.25 50.10 96.25 45.75ZM125.45 41.15L126.90 41.15L126.90 37.30Q126.90 32.55 126.38 30.93Q125.85 29.30 124.35 29.30Q123.45 29.30 122.73 29.78Q122 30.25 122 31.08Q122 31.90 122.30 32.75L123.55 32.75Q123.95 33.80 123.95 35.28Q123.95 36.75 122.70 37.83Q121.45 38.90 119.55 38.90Q115.25 38.90 115.25 34.75Q115.25 28.60 125.70 28.60Q131.65 28.60 133.93 30.63Q136.20 32.65 136.20 38.05L136.20 48.20Q136.20 50.80 137.65 50.80Q139.35 50.80 139.65 45.65L140.40 45.70Q140.20 50.10 138.75 51.75Q137.30 53.40 134 53.40Q128 53.40 127.10 49.70Q126.45 51.60 125.15 52.50Q123.85 53.40 121.35 53.40Q113.95 53.40 113.95 47.35Q113.95 43.80 116.78 42.48Q119.60 41.15 125.45 41.15M123.45 47.30Q123.45 49.90 123.73 50.65Q124 51.40 124.78 51.40Q125.55 51.40 126.23 50.13Q126.90 48.85 126.90 46.60L126.90 41.95L126.55 41.95Q123.45 41.95 123.45 46.50L123.45 47.30Z"/></g></g></svg>