<svg xmlns="http://www.w3.org/2000/svg" viewBox="0 8.75 217.3000030517578 51.75" data-asc="0.905" width="217.3000030517578" height="51.75"><defs/><g fill="#ffffff"><g transform="translate(0, 0)"><path d="M14.35 16.60Q10.40 21.55 8.65 26.50L8.70 26.50Q15.65 26.50 16.68 26.52Q17.70 26.55 17.80 26.45Q17.90 26.35 17.95 26.20Q17.10 20.05 16.60 17.82Q16.10 15.60 15.60 15.60Q15.10 15.60 14.35 16.60M9.90 40.15L11 39.95Q11.50 39.95 11.50 40.50Q11.50 42.25 10.80 43.45Q10.10 44.65 9.05 45.15Q7.35 46 6.15 46Q3.85 46 2.70 44.27Q1.55 42.55 1.55 39.08Q1.55 35.60 3.45 30.05L0.55 30.05Q0 30.05 0 29.50Q0 28.95 0.85 27.72Q1.70 26.50 2.65 26.50L4.90 26.50Q8.45 18.60 13.25 12.85Q14.50 11.35 16.33 10.05Q18.15 8.75 19.15 8.75Q20.15 8.75 20.65 9.65Q21.95 11.75 23.70 25Q24.30 30.70 25.78 36.77Q27.25 42.85 28.50 43.85Q28.80 44.05 28.80 44.35Q28.80 45.10 26.68 45.75Q24.55 46.40 23.43 46.40Q22.30 46.40 21.70 46.13Q21.10 45.85 20.95 45.55Q20.05 43.60 19.15 36.25L18.85 33.90Q18.65 31.55 18.45 30.35L18.10 30.10L7.65 30.05Q7.05 32.60 7.05 34.50Q7.05 36.40 7.17 37.27Q7.30 38.15 8 39.15Q8.70 40.15 9.90 40.15ZM40 22.80Q40.90 22.80 41.63 23.02Q42.35 23.25 42.40 23.25L42.70 23L42.50 17.55Q42.40 16.15 41.90 15.15Q41.40 14.15 41 13.85L40.55 13.60Q40.25 13.40 40.25 13.15Q40.25 12.40 42.58 11.40Q44.90 10.40 46.20 10.40Q47.50 10.40 47.60 10.95Q47.85 12.65 47.85 17.42Q47.85 22.20 47.63 26.80Q47.40 31.40 47.40 37.23Q47.40 43.05 48.15 44.55Q48.35 44.90 48.35 45.20Q48.35 45.95 46.20 45.95Q42.10 45.95 42.10 44Q42 43.20 42 41.52Q42 39.85 42.33 35.27Q42.65 30.70 42.65 28.22Q42.65 25.75 40.18 25.75Q37.70 25.75 36.40 28.65Q35.10 31.55 35.10 34.45Q35.10 40.60 38.20 40.60Q38.65 40.60 39.08 40.42Q39.50 40.25 39.60 40.25Q40 40.25 40.23 40.75Q40.45 41.25 40.45 41.75Q40.45 43.45 39.10 44.63Q37.75 45.80 35.80 45.80Q32.80 45.80 31.28 43.17Q29.75 40.55 29.75 36.65Q29.75 31.70 32.10 27.45Q33.30 25.35 35.35 24.07Q37.40 22.80 40 22.80ZM55.75 18.50L54.55 18.45Q53.20 18.45 52.80 19.10Q52.70 19.25 52.55 19.25Q51.90 19.25 51.90 17.02Q51.90 14.80 52.58 14.20Q53.25 13.60 54.93 13.60Q56.60 13.60 57.20 14.17Q57.80 14.75 57.80 16.10Q57.80 17.45 57.35 17.97Q56.90 18.50 55.75 18.50M51.75 43.75L52.30 32.10Q52.30 27.95 51.35 26.45Q51.05 25.95 50.65 25.70Q50.35 25.60 50.35 25.30Q50.35 24.40 52.90 23.55Q55.45 22.70 56.63 22.70Q57.80 22.70 57.85 23.30Q57.85 24.30 57.58 28.97Q57.30 33.65 57.30 38.80Q57.30 43.95 57.90 45.20Q58.05 45.45 58.05 45.70Q58.05 46.35 56.15 46.35Q54.25 46.35 52.25 45.35Q51.75 45.10 51.75 43.75ZM60.35 25.75L60.50 23.75Q60.55 23.30 61.20 23.30L62.95 23.30L62.75 19.30L62.75 19.10Q62.75 17.95 64.50 16.90Q66.25 15.85 67.70 15.85Q68.15 15.85 68.15 16.25L68.15 16.30Q67.95 17.65 67.75 23.25Q69.95 23.25 70.55 23.15Q71.15 23.05 71.20 23.05Q71.55 23.05 71.55 23.65Q71.55 24.25 71.00 25.17Q70.45 26.10 69.80 26.15L67.70 26.15Q67.65 27.85 67.65 31.88Q67.65 35.90 67.73 38.50Q67.80 41.10 67.90 42.42Q68.00 43.75 68.13 44.55Q68.25 45.35 68.33 45.70Q68.40 46.05 68.40 46.15Q68.40 46.65 67.75 46.70Q65.80 46.70 63.88 46.15Q61.95 45.60 61.95 44.25Q63.00 35.85 63.00 26.20Q61.65 26.20 60.95 26.30L60.90 26.30Q60.45 26.30 60.35 25.75ZM81.65 59.10Q81.65 59.70 81.05 59.70L81.00 59.70Q79.35 59.70 77.28 58.55Q75.20 57.40 75.20 55.90Q75.20 54.40 77.10 50.67Q79.00 46.95 79.00 45.70Q79.00 44.35 77.70 40.85Q76.05 36.30 75.08 33.45Q74.10 30.60 72.98 28.43Q71.85 26.25 71.35 25.85L70.85 25.50Q70.30 25.20 70.30 24.85Q70.30 24.15 72.48 23.42Q74.65 22.70 76.30 22.70Q77.05 22.70 77.55 23.90Q78.45 26.25 79.50 30.40Q82.05 38.90 82.70 38.90Q83.15 38.90 84.53 35.40Q85.90 31.90 85.90 29.75Q85.90 26 83.70 25.35Q83.20 25.25 83.20 24.85Q83.20 23.95 85.55 23.13Q87.90 22.30 89.80 22.30Q91.45 22.30 91.45 24.45Q91.45 26.10 90.75 28.30Q90.05 30.50 89.45 31.77Q88.85 33.05 86.48 37.67Q84.10 42.30 82.55 45.80Q80.85 50 80.85 54.35Q80.85 56.65 81.25 57.80Q81.65 58.95 81.65 59.10ZM108.95 30.25L108.85 36.65Q108.85 43.30 110.30 44.65Q110.50 44.85 110.50 45.10Q110.50 45.85 107.28 45.85Q104.05 45.85 103.85 43.95Q103.80 43.50 103.80 42.10L104.00 34.10Q104.00 33.75 103.60 33.75Q101.20 33.75 99.10 35.10Q97.00 36.45 97.00 38.55Q97.00 39.65 97.60 40.40Q98.20 41.15 99.08 41.15Q99.95 41.15 100.53 40.80Q101.10 40.45 101.20 40.40Q102.05 40.50 102.05 42.17Q102.05 43.85 100.50 44.88Q98.95 45.90 97.25 45.90Q95.55 45.90 94.33 45.30Q93.10 44.70 92.55 43.95Q92.00 43.20 91.65 42.25Q91.30 41.10 91.30 40.25Q91.30 36.75 93.50 34.65Q95.70 32.55 99.15 31.65Q103.70 30.75 103.90 30Q104.05 29.45 104.05 28.15Q104.05 25.50 101.35 25.50Q100.20 25.50 99.30 26.22Q98.40 26.95 98.40 28.05L98.70 29.25Q98.60 30.10 96.90 30.25L96.35 30.30Q94.85 30.30 93.98 29.55Q93.10 28.80 93.10 27.55Q93.10 26.75 93.63 25.77Q94.15 24.80 94.95 24.20Q95.75 23.60 97.43 23.13Q99.10 22.65 100.65 22.65Q102.20 22.65 103.05 22.75Q103.90 22.85 105.38 23.22Q106.85 23.60 107.83 24.65Q108.80 25.70 108.88 26.88Q108.95 28.05 108.95 30.25ZM138.35 30.55Q138.35 29.40 136.95 29.30L133.40 29.30Q133 29.30 133 29.05Q133.30 27.60 134.05 26.72Q134.80 25.85 135.30 25.75Q136.70 25.55 139.90 25.55Q143.10 25.55 143.90 25.57Q144.70 25.60 144.90 25.75Q145.10 26 145.10 26.32Q145.10 26.65 144.93 30.48Q144.75 34.30 144.75 37.33Q144.75 40.35 144.95 41.13Q145.15 41.90 145.15 42.10Q145.15 42.90 143.75 43.83Q142.35 44.75 139.53 45.45Q136.70 46.15 133.30 46.15Q128.75 46.15 125.40 43Q122.80 40.50 121.83 37.55Q120.85 34.60 120.85 29.25Q120.85 9.40 135.40 9.40Q137.85 9.40 139.80 9.92Q141.75 10.45 143.23 11.98Q144.70 13.50 144.70 15.90Q144.70 17.15 144.20 18.45Q143.30 21.10 140.20 21.10Q138.50 21.10 137.63 20.22Q136.75 19.35 136.75 17.80Q136.75 17.20 137.40 17.05Q138.35 16.50 138.35 15.17Q138.35 13.85 137.35 13.13Q136.35 12.40 135.25 12.40Q132.85 12.40 131.20 14.13Q129.55 15.85 128.80 18.65Q127.55 23.65 127.55 28.85Q127.55 37.35 131.70 40.15Q133.25 41.25 134.95 41.25Q138.10 41.25 138.30 40.10Q138.45 38.55 138.45 35.30L138.35 30.55ZM165.55 23Q164.65 28.40 164.65 36.75Q164.65 42.90 165.15 44.85L165.35 45.50Q165.35 46.15 164.25 46.15Q160.40 46.15 159.85 44Q159.80 43.75 159.63 43.75Q159.45 43.75 159.30 43.95Q157.75 46 154.50 46Q152.70 46 150.75 45.10Q149.55 44.55 148.80 43.17Q148.05 41.80 148.05 39.80L148.80 28.85Q148.80 25.40 148.10 23.95Q147.85 23.40 147.85 23.25Q147.85 22.95 148.10 22.85Q148.90 22.60 150.15 22.60Q155.00 22.60 155.00 26.60Q155.00 27.85 153.98 32.30Q152.95 36.75 152.95 38.63Q152.95 40.50 153.78 41.50Q154.60 42.50 156.08 42.50Q157.55 42.50 158.40 41.45Q159.25 40.40 159.40 39.35L159.55 38.30Q159.75 36.55 159.75 32.15Q159.75 27.75 159.48 26.57Q159.20 25.40 159.20 25.10Q159.20 23.85 161.20 23.13Q163.20 22.40 164.80 22.40Q165.55 22.40 165.55 23ZM168.45 37.60Q168.55 32.55 168.55 29.30Q168.55 26.05 168.10 23.10Q168.10 22.60 169.10 22.60Q170.10 22.60 170.83 22.85Q171.55 23.10 171.85 23.40Q172.65 24.20 172.78 24.20Q172.90 24.20 173.55 23.75Q175.50 22.50 177.88 22.50Q180.25 22.50 182.03 23.70Q183.80 24.90 184.55 26.85Q185.90 30.20 185.90 33.95Q185.90 37.65 184.55 41.35Q183.80 43.35 182.35 44.63Q180.90 45.90 178.95 45.90Q175.10 45.90 175.10 41.45Q175.10 40.25 175.60 40.25Q175.70 40.25 176.18 40.48Q176.65 40.70 177.10 40.70Q180.65 40.70 180.65 33.17Q180.65 25.65 176.85 25.65Q175.80 25.65 175.08 26.13Q174.35 26.60 174.15 27.05L173.95 27.55Q173.25 32.05 173.25 44.90Q173.25 50.70 173.48 53.23Q173.70 55.75 173.70 56.25Q173.70 56.75 173.40 57.15Q172.40 58.45 170.70 59.48Q169.00 60.50 167.70 60.50Q167.20 60.50 167.20 59.85Q168.00 54.80 168.45 37.60ZM187.10 25.75L187.25 23.75Q187.30 23.30 187.95 23.30L189.70 23.30L189.50 19.30L189.50 19.10Q189.50 17.95 191.25 16.90Q193.00 15.85 194.45 15.85Q194.90 15.85 194.90 16.25L194.90 16.30Q194.70 17.65 194.50 23.25Q196.70 23.25 197.30 23.15Q197.90 23.05 197.95 23.05Q198.30 23.05 198.30 23.65Q198.30 24.25 197.75 25.17Q197.20 26.10 196.55 26.15L194.45 26.15Q194.40 27.85 194.40 31.88Q194.40 35.90 194.48 38.50Q194.55 41.10 194.65 42.42Q194.75 43.75 194.88 44.55Q195.00 45.35 195.08 45.70Q195.15 46.05 195.15 46.15Q195.15 46.65 194.50 46.70Q192.55 46.70 190.63 46.15Q188.70 45.60 188.70 44.25Q189.75 35.85 189.75 26.20Q188.40 26.20 187.70 26.30L187.65 26.30Q187.20 26.30 187.10 25.75ZM215.75 30.25L215.65 36.65Q215.65 43.30 217.10 44.65Q217.30 44.85 217.30 45.10Q217.30 45.85 214.08 45.85Q210.85 45.85 210.65 43.95Q210.60 43.50 210.60 42.10L210.80 34.10Q210.80 33.75 210.40 33.75Q208 33.75 205.90 35.10Q203.80 36.45 203.80 38.55Q203.80 39.65 204.40 40.40Q205 41.15 205.88 41.15Q206.75 41.15 207.33 40.80Q207.90 40.45 208 40.40Q208.85 40.50 208.85 42.17Q208.85 43.85 207.30 44.88Q205.75 45.90 204.05 45.90Q202.35 45.90 201.13 45.30Q199.90 44.70 199.35 43.95Q198.80 43.20 198.45 42.25Q198.10 41.10 198.10 40.25Q198.10 36.75 200.30 34.65Q202.50 32.55 205.95 31.65Q210.50 30.75 210.70 30Q210.85 29.45 210.85 28.15Q210.85 25.50 208.15 25.50Q207 25.50 206.10 26.22Q205.20 26.95 205.20 28.05L205.50 29.25Q205.40 30.10 203.70 30.25L203.15 30.30Q201.65 30.30 200.78 29.55Q199.90 28.80 199.90 27.55Q199.90 26.75 200.43 25.77Q200.95 24.80 201.75 24.20Q202.55 23.60 204.23 23.13Q205.90 22.65 207.45 22.65Q209 22.65 209.85 22.75Q210.70 22.85 212.18 23.22Q213.65 23.60 214.63 24.65Q215.60 25.70 215.68 26.88Q215.75 28.05 215.75 30.25Z"/></g></g></svg>